<mxfile host="app.diagrams.net" modified="2021-12-01T09:38:04.316Z" agent="5.0 (Macintosh; Intel Mac OS X 10_15_7) AppleWebKit/537.36 (KHTML, like Gecko) Chrome/96.0.4664.55 Safari/537.36" etag="AadAZTAAJNUm4SFoviOr" version="15.3.0" type="github">
  <diagram id="GorhiHvAuKw289XeDeVR" name="Page-1">
    <mxGraphModel dx="1554" dy="859" grid="1" gridSize="10" guides="1" tooltips="1" connect="1" arrows="1" fold="1" page="1" pageScale="1" pageWidth="850" pageHeight="1100" math="0" shadow="0">
      <root>
        <mxCell id="0" />
        <mxCell id="1" parent="0" />
        <mxCell id="nayLnsEeoN7-iVNfNKT8-67" style="edgeStyle=orthogonalEdgeStyle;rounded=0;jumpStyle=arc;orthogonalLoop=1;jettySize=auto;html=1;exitX=0.5;exitY=0;exitDx=0;exitDy=0;" parent="1" source="nayLnsEeoN7-iVNfNKT8-1" target="nayLnsEeoN7-iVNfNKT8-5" edge="1">
          <mxGeometry relative="1" as="geometry" />
        </mxCell>
        <mxCell id="nayLnsEeoN7-iVNfNKT8-71" style="edgeStyle=orthogonalEdgeStyle;rounded=0;jumpStyle=arc;orthogonalLoop=1;jettySize=auto;html=1;exitX=0.75;exitY=0;exitDx=0;exitDy=0;entryX=0;entryY=0.5;entryDx=0;entryDy=0;" parent="1" source="nayLnsEeoN7-iVNfNKT8-1" target="nayLnsEeoN7-iVNfNKT8-26" edge="1">
          <mxGeometry relative="1" as="geometry" />
        </mxCell>
        <mxCell id="nayLnsEeoN7-iVNfNKT8-72" style="edgeStyle=orthogonalEdgeStyle;rounded=0;jumpStyle=arc;orthogonalLoop=1;jettySize=auto;html=1;exitX=1;exitY=0.5;exitDx=0;exitDy=0;entryX=0;entryY=0.75;entryDx=0;entryDy=0;" parent="1" source="nayLnsEeoN7-iVNfNKT8-1" target="nayLnsEeoN7-iVNfNKT8-56" edge="1">
          <mxGeometry relative="1" as="geometry">
            <Array as="points">
              <mxPoint x="680" y="510" />
              <mxPoint x="680" y="485" />
            </Array>
          </mxGeometry>
        </mxCell>
        <mxCell id="nayLnsEeoN7-iVNfNKT8-73" style="edgeStyle=orthogonalEdgeStyle;rounded=0;jumpStyle=arc;orthogonalLoop=1;jettySize=auto;html=1;exitX=1;exitY=0.5;exitDx=0;exitDy=0;entryX=0;entryY=0.5;entryDx=0;entryDy=0;" parent="1" source="nayLnsEeoN7-iVNfNKT8-1" target="nayLnsEeoN7-iVNfNKT8-38" edge="1">
          <mxGeometry relative="1" as="geometry">
            <Array as="points">
              <mxPoint x="680" y="510" />
              <mxPoint x="680" y="580" />
            </Array>
          </mxGeometry>
        </mxCell>
        <mxCell id="nayLnsEeoN7-iVNfNKT8-1" value="" style="strokeColor=#dddddd;shadow=1;strokeWidth=1;rounded=1;absoluteArcSize=1;arcSize=2;" parent="1" vertex="1">
          <mxGeometry x="410" y="480" width="120" height="60" as="geometry" />
        </mxCell>
        <mxCell id="nayLnsEeoN7-iVNfNKT8-2" value="&lt;font color=&quot;#000000&quot;&gt;Flask&lt;/font&gt;&lt;br&gt;Cloud Run" style="sketch=0;dashed=0;connectable=0;html=1;fillColor=#5184F3;strokeColor=none;shape=mxgraph.gcp2.hexIcon;prIcon=cloud_run;part=1;labelPosition=right;verticalLabelPosition=middle;align=left;verticalAlign=middle;spacingLeft=5;fontColor=#999999;fontSize=12;" parent="nayLnsEeoN7-iVNfNKT8-1" vertex="1">
          <mxGeometry y="0.5" width="44" height="39" relative="1" as="geometry">
            <mxPoint x="5" y="-19.5" as="offset" />
          </mxGeometry>
        </mxCell>
        <mxCell id="nayLnsEeoN7-iVNfNKT8-5" value="" style="strokeColor=#dddddd;shadow=1;strokeWidth=1;rounded=1;absoluteArcSize=1;arcSize=2;" parent="1" vertex="1">
          <mxGeometry x="400" y="280" width="140" height="60" as="geometry" />
        </mxCell>
        <mxCell id="nayLnsEeoN7-iVNfNKT8-6" value="&lt;font color=&quot;#000000&quot;&gt;Product Image&lt;/font&gt;&lt;br&gt;Cloud Storage" style="sketch=0;dashed=0;connectable=0;html=1;fillColor=#5184F3;strokeColor=none;shape=mxgraph.gcp2.hexIcon;prIcon=cloud_storage;part=1;labelPosition=right;verticalLabelPosition=middle;align=left;verticalAlign=middle;spacingLeft=5;fontColor=#999999;fontSize=12;" parent="nayLnsEeoN7-iVNfNKT8-5" vertex="1">
          <mxGeometry y="0.5" width="44" height="39" relative="1" as="geometry">
            <mxPoint x="5" y="-19.5" as="offset" />
          </mxGeometry>
        </mxCell>
        <mxCell id="nayLnsEeoN7-iVNfNKT8-7" value="" style="strokeColor=#dddddd;shadow=1;strokeWidth=1;rounded=1;absoluteArcSize=1;arcSize=2;" parent="1" vertex="1">
          <mxGeometry x="400" y="180" width="140" height="60" as="geometry" />
        </mxCell>
        <mxCell id="nayLnsEeoN7-iVNfNKT8-8" value="&lt;font color=&quot;#000000&quot;&gt;Extracted Img&lt;/font&gt;&lt;br&gt;Cloud Storage" style="sketch=0;dashed=0;connectable=0;html=1;fillColor=#5184F3;strokeColor=none;shape=mxgraph.gcp2.hexIcon;prIcon=cloud_storage;part=1;labelPosition=right;verticalLabelPosition=middle;align=left;verticalAlign=middle;spacingLeft=5;fontColor=#999999;fontSize=12;" parent="nayLnsEeoN7-iVNfNKT8-7" vertex="1">
          <mxGeometry y="0.5" width="44" height="39" relative="1" as="geometry">
            <mxPoint x="5" y="-19.5" as="offset" />
          </mxGeometry>
        </mxCell>
        <mxCell id="nayLnsEeoN7-iVNfNKT8-62" value="" style="edgeStyle=orthogonalEdgeStyle;curved=1;rounded=0;jumpStyle=arc;orthogonalLoop=1;jettySize=auto;html=1;" parent="1" source="nayLnsEeoN7-iVNfNKT8-9" target="nayLnsEeoN7-iVNfNKT8-7" edge="1">
          <mxGeometry relative="1" as="geometry" />
        </mxCell>
        <mxCell id="nayLnsEeoN7-iVNfNKT8-63" value="" style="edgeStyle=orthogonalEdgeStyle;curved=1;rounded=0;jumpStyle=arc;orthogonalLoop=1;jettySize=auto;html=1;" parent="1" source="nayLnsEeoN7-iVNfNKT8-9" target="nayLnsEeoN7-iVNfNKT8-16" edge="1">
          <mxGeometry relative="1" as="geometry" />
        </mxCell>
        <mxCell id="nayLnsEeoN7-iVNfNKT8-9" value="" style="strokeColor=#dddddd;shadow=1;strokeWidth=1;rounded=1;absoluteArcSize=1;arcSize=2;" parent="1" vertex="1">
          <mxGeometry x="600" y="180" width="150" height="60" as="geometry" />
        </mxCell>
        <mxCell id="nayLnsEeoN7-iVNfNKT8-10" value="&lt;font color=&quot;#000000&quot;&gt;Extract Text&lt;/font&gt;&lt;br&gt;Cloud Functions" style="sketch=0;dashed=0;connectable=0;html=1;fillColor=#5184F3;strokeColor=none;shape=mxgraph.gcp2.hexIcon;prIcon=cloud_functions;part=1;labelPosition=right;verticalLabelPosition=middle;align=left;verticalAlign=middle;spacingLeft=5;fontColor=#999999;fontSize=12;" parent="nayLnsEeoN7-iVNfNKT8-9" vertex="1">
          <mxGeometry y="0.5" width="44" height="39" relative="1" as="geometry">
            <mxPoint x="5" y="-19.5" as="offset" />
          </mxGeometry>
        </mxCell>
        <mxCell id="nayLnsEeoN7-iVNfNKT8-13" value="AutoML Vision" style="sketch=0;html=1;fillColor=#5184F3;strokeColor=none;verticalAlign=top;labelPosition=center;verticalLabelPosition=bottom;align=center;spacingTop=-6;fontSize=11;fontStyle=1;fontColor=#999999;shape=mxgraph.gcp2.hexIcon;prIcon=automl_vision" parent="1" vertex="1">
          <mxGeometry x="800" y="280" width="66" height="58.5" as="geometry" />
        </mxCell>
        <mxCell id="nayLnsEeoN7-iVNfNKT8-66" style="edgeStyle=orthogonalEdgeStyle;rounded=0;jumpStyle=arc;orthogonalLoop=1;jettySize=auto;html=1;exitX=1;exitY=0.5;exitDx=0;exitDy=0;entryX=1;entryY=0.5;entryDx=0;entryDy=0;" parent="1" source="nayLnsEeoN7-iVNfNKT8-16" target="nayLnsEeoN7-iVNfNKT8-26" edge="1">
          <mxGeometry relative="1" as="geometry" />
        </mxCell>
        <mxCell id="nayLnsEeoN7-iVNfNKT8-16" value="" style="strokeColor=#dddddd;shadow=1;strokeWidth=1;rounded=1;absoluteArcSize=1;arcSize=2;" parent="1" vertex="1">
          <mxGeometry x="800" y="180" width="140" height="60" as="geometry" />
        </mxCell>
        <mxCell id="nayLnsEeoN7-iVNfNKT8-17" value="Document AI" style="sketch=0;dashed=0;connectable=0;html=1;fillColor=#5184F3;strokeColor=none;shape=mxgraph.gcp2.hexIcon;prIcon=cloud_natural_language_api;part=1;labelPosition=right;verticalLabelPosition=middle;align=left;verticalAlign=middle;spacingLeft=5;fontColor=#999999;fontSize=12;" parent="nayLnsEeoN7-iVNfNKT8-16" vertex="1">
          <mxGeometry y="0.5" width="44" height="39" relative="1" as="geometry">
            <mxPoint x="5" y="-19.5" as="offset" />
          </mxGeometry>
        </mxCell>
        <mxCell id="nayLnsEeoN7-iVNfNKT8-61" value="" style="edgeStyle=orthogonalEdgeStyle;curved=1;rounded=0;jumpStyle=arc;orthogonalLoop=1;jettySize=auto;html=1;" parent="1" source="nayLnsEeoN7-iVNfNKT8-22" target="nayLnsEeoN7-iVNfNKT8-5" edge="1">
          <mxGeometry relative="1" as="geometry" />
        </mxCell>
        <mxCell id="nayLnsEeoN7-iVNfNKT8-64" value="" style="edgeStyle=orthogonalEdgeStyle;curved=1;rounded=0;jumpStyle=arc;orthogonalLoop=1;jettySize=auto;html=1;" parent="1" source="nayLnsEeoN7-iVNfNKT8-22" target="nayLnsEeoN7-iVNfNKT8-13" edge="1">
          <mxGeometry relative="1" as="geometry" />
        </mxCell>
        <mxCell id="nayLnsEeoN7-iVNfNKT8-74" style="edgeStyle=orthogonalEdgeStyle;rounded=0;jumpStyle=arc;orthogonalLoop=1;jettySize=auto;html=1;exitX=0.5;exitY=0;exitDx=0;exitDy=0;entryX=0.5;entryY=1;entryDx=0;entryDy=0;" parent="1" source="nayLnsEeoN7-iVNfNKT8-22" target="nayLnsEeoN7-iVNfNKT8-7" edge="1">
          <mxGeometry relative="1" as="geometry" />
        </mxCell>
        <mxCell id="nayLnsEeoN7-iVNfNKT8-22" value="" style="strokeColor=#dddddd;shadow=1;strokeWidth=1;rounded=1;absoluteArcSize=1;arcSize=2;" parent="1" vertex="1">
          <mxGeometry x="600" y="280" width="150" height="60" as="geometry" />
        </mxCell>
        <mxCell id="nayLnsEeoN7-iVNfNKT8-23" value="&lt;font color=&quot;#000000&quot;&gt;Extract Image&lt;/font&gt;&lt;br&gt;Cloud Functions" style="sketch=0;dashed=0;connectable=0;html=1;fillColor=#5184F3;strokeColor=none;shape=mxgraph.gcp2.hexIcon;prIcon=cloud_functions;part=1;labelPosition=right;verticalLabelPosition=middle;align=left;verticalAlign=middle;spacingLeft=5;fontColor=#999999;fontSize=12;" parent="nayLnsEeoN7-iVNfNKT8-22" vertex="1">
          <mxGeometry y="0.5" width="44" height="39" relative="1" as="geometry">
            <mxPoint x="5" y="-19.5" as="offset" />
          </mxGeometry>
        </mxCell>
        <mxCell id="nayLnsEeoN7-iVNfNKT8-26" value="" style="strokeColor=#dddddd;shadow=1;strokeWidth=1;rounded=1;absoluteArcSize=1;arcSize=2;" parent="1" vertex="1">
          <mxGeometry x="600" y="380" width="150" height="60" as="geometry" />
        </mxCell>
        <mxCell id="nayLnsEeoN7-iVNfNKT8-27" value="&lt;font color=&quot;#000000&quot;&gt;Extracted Text&lt;/font&gt;&lt;br&gt;Cloud Datastore" style="sketch=0;dashed=0;connectable=0;html=1;fillColor=#5184F3;strokeColor=none;shape=mxgraph.gcp2.hexIcon;prIcon=cloud_datastore;part=1;labelPosition=right;verticalLabelPosition=middle;align=left;verticalAlign=middle;spacingLeft=5;fontColor=#999999;fontSize=12;" parent="nayLnsEeoN7-iVNfNKT8-26" vertex="1">
          <mxGeometry y="0.5" width="44" height="39" relative="1" as="geometry">
            <mxPoint x="5" y="-19.5" as="offset" />
          </mxGeometry>
        </mxCell>
        <mxCell id="nayLnsEeoN7-iVNfNKT8-75" style="edgeStyle=orthogonalEdgeStyle;rounded=0;jumpStyle=arc;orthogonalLoop=1;jettySize=auto;html=1;" parent="1" source="nayLnsEeoN7-iVNfNKT8-37" target="nayLnsEeoN7-iVNfNKT8-5" edge="1">
          <mxGeometry relative="1" as="geometry" />
        </mxCell>
        <mxCell id="nayLnsEeoN7-iVNfNKT8-37" value="" style="sketch=0;outlineConnect=0;fontColor=#232F3E;gradientColor=none;fillColor=#FF9900;strokeColor=none;dashed=0;verticalLabelPosition=bottom;verticalAlign=top;align=center;html=1;fontSize=12;fontStyle=0;aspect=fixed;pointerEvents=1;shape=mxgraph.aws4.container_registry_image;" parent="1" vertex="1">
          <mxGeometry x="310" y="291" width="38" height="38" as="geometry" />
        </mxCell>
        <mxCell id="nayLnsEeoN7-iVNfNKT8-38" value="Nutrition" style="shape=table;startSize=30;container=1;collapsible=0;childLayout=tableLayout;fontStyle=1;align=center;pointerEvents=1;" parent="1" vertex="1">
          <mxGeometry x="810" y="555" width="70" height="50" as="geometry" />
        </mxCell>
        <mxCell id="nayLnsEeoN7-iVNfNKT8-39" value="" style="shape=partialRectangle;html=1;whiteSpace=wrap;collapsible=0;dropTarget=0;pointerEvents=0;fillColor=none;top=0;left=0;bottom=0;right=0;points=[[0,0.5],[1,0.5]];portConstraint=eastwest;" parent="nayLnsEeoN7-iVNfNKT8-38" vertex="1">
          <mxGeometry y="30" width="70" height="7" as="geometry" />
        </mxCell>
        <mxCell id="nayLnsEeoN7-iVNfNKT8-40" value="" style="shape=partialRectangle;html=1;whiteSpace=wrap;connectable=0;fillColor=none;top=0;left=0;bottom=0;right=0;overflow=hidden;pointerEvents=1;" parent="nayLnsEeoN7-iVNfNKT8-39" vertex="1">
          <mxGeometry width="23" height="7" as="geometry">
            <mxRectangle width="23" height="7" as="alternateBounds" />
          </mxGeometry>
        </mxCell>
        <mxCell id="nayLnsEeoN7-iVNfNKT8-41" value="" style="shape=partialRectangle;html=1;whiteSpace=wrap;connectable=0;fillColor=none;top=0;left=0;bottom=0;right=0;overflow=hidden;pointerEvents=1;" parent="nayLnsEeoN7-iVNfNKT8-39" vertex="1">
          <mxGeometry x="23" width="24" height="7" as="geometry">
            <mxRectangle width="24" height="7" as="alternateBounds" />
          </mxGeometry>
        </mxCell>
        <mxCell id="nayLnsEeoN7-iVNfNKT8-42" value="" style="shape=partialRectangle;html=1;whiteSpace=wrap;connectable=0;fillColor=none;top=0;left=0;bottom=0;right=0;overflow=hidden;pointerEvents=1;" parent="nayLnsEeoN7-iVNfNKT8-39" vertex="1">
          <mxGeometry x="47" width="23" height="7" as="geometry">
            <mxRectangle width="23" height="7" as="alternateBounds" />
          </mxGeometry>
        </mxCell>
        <mxCell id="nayLnsEeoN7-iVNfNKT8-43" value="" style="shape=partialRectangle;html=1;whiteSpace=wrap;collapsible=0;dropTarget=0;pointerEvents=0;fillColor=none;top=0;left=0;bottom=0;right=0;points=[[0,0.5],[1,0.5]];portConstraint=eastwest;" parent="nayLnsEeoN7-iVNfNKT8-38" vertex="1">
          <mxGeometry y="37" width="70" height="6" as="geometry" />
        </mxCell>
        <mxCell id="nayLnsEeoN7-iVNfNKT8-44" value="" style="shape=partialRectangle;html=1;whiteSpace=wrap;connectable=0;fillColor=none;top=0;left=0;bottom=0;right=0;overflow=hidden;pointerEvents=1;" parent="nayLnsEeoN7-iVNfNKT8-43" vertex="1">
          <mxGeometry width="23" height="6" as="geometry">
            <mxRectangle width="23" height="6" as="alternateBounds" />
          </mxGeometry>
        </mxCell>
        <mxCell id="nayLnsEeoN7-iVNfNKT8-45" value="" style="shape=partialRectangle;html=1;whiteSpace=wrap;connectable=0;fillColor=none;top=0;left=0;bottom=0;right=0;overflow=hidden;pointerEvents=1;" parent="nayLnsEeoN7-iVNfNKT8-43" vertex="1">
          <mxGeometry x="23" width="24" height="6" as="geometry">
            <mxRectangle width="24" height="6" as="alternateBounds" />
          </mxGeometry>
        </mxCell>
        <mxCell id="nayLnsEeoN7-iVNfNKT8-46" value="" style="shape=partialRectangle;html=1;whiteSpace=wrap;connectable=0;fillColor=none;top=0;left=0;bottom=0;right=0;overflow=hidden;pointerEvents=1;" parent="nayLnsEeoN7-iVNfNKT8-43" vertex="1">
          <mxGeometry x="47" width="23" height="6" as="geometry">
            <mxRectangle width="23" height="6" as="alternateBounds" />
          </mxGeometry>
        </mxCell>
        <mxCell id="nayLnsEeoN7-iVNfNKT8-47" value="" style="shape=partialRectangle;html=1;whiteSpace=wrap;collapsible=0;dropTarget=0;pointerEvents=0;fillColor=none;top=0;left=0;bottom=0;right=0;points=[[0,0.5],[1,0.5]];portConstraint=eastwest;" parent="nayLnsEeoN7-iVNfNKT8-38" vertex="1">
          <mxGeometry y="43" width="70" height="7" as="geometry" />
        </mxCell>
        <mxCell id="nayLnsEeoN7-iVNfNKT8-48" value="" style="shape=partialRectangle;html=1;whiteSpace=wrap;connectable=0;fillColor=none;top=0;left=0;bottom=0;right=0;overflow=hidden;pointerEvents=1;" parent="nayLnsEeoN7-iVNfNKT8-47" vertex="1">
          <mxGeometry width="23" height="7" as="geometry">
            <mxRectangle width="23" height="7" as="alternateBounds" />
          </mxGeometry>
        </mxCell>
        <mxCell id="nayLnsEeoN7-iVNfNKT8-49" value="" style="shape=partialRectangle;html=1;whiteSpace=wrap;connectable=0;fillColor=none;top=0;left=0;bottom=0;right=0;overflow=hidden;pointerEvents=1;" parent="nayLnsEeoN7-iVNfNKT8-47" vertex="1">
          <mxGeometry x="23" width="24" height="7" as="geometry">
            <mxRectangle width="24" height="7" as="alternateBounds" />
          </mxGeometry>
        </mxCell>
        <mxCell id="nayLnsEeoN7-iVNfNKT8-50" value="" style="shape=partialRectangle;html=1;whiteSpace=wrap;connectable=0;fillColor=none;top=0;left=0;bottom=0;right=0;overflow=hidden;pointerEvents=1;" parent="nayLnsEeoN7-iVNfNKT8-47" vertex="1">
          <mxGeometry x="47" width="23" height="7" as="geometry">
            <mxRectangle width="23" height="7" as="alternateBounds" />
          </mxGeometry>
        </mxCell>
        <mxCell id="nayLnsEeoN7-iVNfNKT8-56" value="Made In Australia with x% Australian ingredients" style="text;html=1;strokeColor=none;fillColor=none;align=center;verticalAlign=middle;whiteSpace=wrap;rounded=0;" parent="1" vertex="1">
          <mxGeometry x="820" y="470" width="40" height="20" as="geometry" />
        </mxCell>
      </root>
    </mxGraphModel>
  </diagram>
</mxfile>
